# xmcd
#
# Track frame offsets:
#	150
#	17547
#	32895
#	48252
#	65612
#	79139
#	93033
#	117512
#	134192
#	151380
#	169095
#	190540
#	207196
#	222471
#	236521
#	250306
#	267216
#	293115
#
# Disc length: 4440 seconds
#
# Revision: 1
# Processed by: cddbd v1.5.2PL0 Copyright (c) Steve Scherf et al.
# Submitted via: audiograbber 1.83.01
#
DISCID=02115612
DTITLE=Fetenhits - Fetenhits - Alpen Party - CD 4
DYEAR=2003
DGENRE=Rock/Pop
TTITLE0=A*Teens - Super Trouper
TTITLE1=Vengaboys - Boom, Boom, Boom!
TTITLE2=Gigi D`Agostino - The Riddle
TTITLE3=Crazy Orange - Tirol Du Bist Mein Heimatland
TTITLE4=Marianne Rosenberg - Er Gehört Zu Mir
TTITLE5=Dieter Thomas Kuhn - Über Den Wolken
TTITLE6=S.T.S. - Fürstenfeld
TTITLE7=Costa Cordalis - Hüttenhammer
TTITLE8=DJ Ötzi and Hermes House Band - Three Lions (Football`s Coming Home)
TTITLE9=Labelle - Lady Marmelade
TTITLE10=Village People - Y.M.C.A.
TTITLE11=Rollergirl - Luv U More
TTITLE12=DJ Zipfelmann - Der Zipfelsong
TTITLE13=Klostertaler - Die Längste Nacht Der Welt
TTITLE14=Original Alpenland Quintett - Zigge Zagge, hoi, hoi, hoi
TTITLE15=Henning and Holm - Maddalena 2001 (Du Luder)
TTITLE16=Wolfgang Ambros - Schifoan
TTITLE17=a - Daten-CD
EXTD=
EXTT0=
EXTT1=
EXTT2=
EXTT3=
EXTT4=
EXTT5=
EXTT6=
EXTT7=
EXTT8=
EXTT9=
EXTT10=
EXTT11=
EXTT12=
EXTT13=
EXTT14=
EXTT15=
EXTT16=
EXTT17=
PLAYORDER=
